<mxfile host="app.diagrams.net" modified="2024-06-18T08:21:55.860Z" agent="Mozilla/5.0 (Windows NT 10.0; Win64; x64) AppleWebKit/537.36 (KHTML, like Gecko) Chrome/126.0.0.0 Safari/537.36" version="24.5.5" etag="XhpWfkg99bpR1Xly5ApR" type="github">
  <diagram name="페이지-1" id="VgHx2M2HuqQiWdDFN3Q4">
    <mxGraphModel>
      <root>
        <mxCell id="0" />
        <mxCell id="1" parent="0" />
      </root>
    </mxGraphModel>
  </diagram>
</mxfile>
